<svg width="154" height="31" viewBox="0 0 154 31" fill="none" xmlns="http://www.w3.org/2000/svg">
<path fill-rule="evenodd" clip-rule="evenodd" d="M12.231 7.79537C12.777 6.73487 14.307 6.73487 14.852 7.79537L16.691 11.3687C16.722 11.4279 16.779 11.4692 16.845 11.4797L20.842 12.1101C22.028 12.2971 22.5 13.7357 21.652 14.5775L18.791 17.4188C18.744 17.4659 18.722 17.5325 18.732 17.5981L19.363 21.5635C19.55 22.7388 18.3131 23.6283 17.2421 23.0883L13.637 21.2695C13.577 21.2393 13.506 21.2393 13.446 21.2695L9.84105 23.0883C8.77105 23.6283 7.53402 22.7388 7.72102 21.5635L8.35103 17.5981C8.36203 17.5325 8.34004 17.4659 8.29204 17.4188L5.43105 14.5775C4.58305 13.7357 5.05604 12.2971 6.24104 12.1101L10.238 11.4797C10.305 11.4692 10.362 11.4279 10.392 11.3687L12.231 7.79537Z" fill="#D62728"/>
</svg>
