<svg width="157" height="181" viewBox="0 0 157 181" fill="none" xmlns="http://www.w3.org/2000/svg">
<g filter="url(#filter0_f_251_10)">
<ellipse cx="78.0927" cy="163.092" rx="20.0927" ry="7.09154" fill="black" fill-opacity="0.2"/>
</g>
<g filter="url(#filter1_d_251_10)">
<path fill-rule="evenodd" clip-rule="evenodd" d="M78.42 12C113.446 12 141.84 40.3941 141.84 75.42C141.84 102.276 125.147 125.233 101.571 134.482L82.0315 161.19C81.6242 161.749 81.0833 162.205 80.4546 162.52C79.8259 162.836 79.1278 163 78.4193 163C77.7108 163 77.0127 162.836 76.384 162.52C75.7553 162.205 75.2145 161.749 74.8071 161.19L55.2667 134.481C31.6919 125.232 15 102.275 15 75.42C15 40.3941 43.3941 12 78.42 12Z" fill="#0072B2"/>
</g>
<path d="M131.892 75.4212C131.892 45.8896 107.952 21.9495 78.42 21.9495C48.8884 21.9495 24.9482 45.8896 24.9482 75.4212C24.9482 104.953 48.8884 128.893 78.42 128.893C107.952 128.893 131.892 104.953 131.892 75.4212Z" fill="white"/>
<path d="M104.381 49.4581C104.381 49.4581 104.868 50.4573 104.929 50.605C105.05 50.9001 105.208 51.3151 105.368 51.8311C105.687 52.8593 106.024 54.3122 106.1 56.0301C106.254 59.5149 105.322 64.0359 101.175 68.1611C101.127 68.2094 101.076 68.2554 101.023 68.2988L84.2854 82.0117L76.924 88.3562L77.8651 98.7087C77.9546 99.6933 77.3549 100.61 76.417 100.923L70.1747 103.003C69.1403 103.348 68.0127 102.857 67.5615 101.864L62.6901 91.1474L51.9729 86.2763C50.9803 85.8252 50.4885 84.6975 50.8334 83.663L52.9142 77.421C53.2268 76.4831 54.1436 75.8834 55.1281 75.9729L65.4814 76.914L71.8255 69.554L85.5199 52.7998C85.5648 52.7447 85.6125 52.6919 85.6628 52.6416C89.7982 48.5066 94.3229 47.5809 97.8084 47.7376C99.5269 47.8149 100.98 48.1524 102.008 48.4716C102.525 48.6318 102.94 48.7892 103.234 48.911C103.382 48.972 104.381 49.4581 104.381 49.4581Z" fill="#0072B2"/>
<path d="M77.4326 55.9601L68.5593 66.8162L66.4861 69.2215L54.8732 62.2366C54.3114 61.8987 53.9364 61.3209 53.8567 60.6701C53.7769 60.0194 54.0012 59.3682 54.4647 58.9046L61.5713 51.7972L77.4326 55.9601Z" fill="#0072B2"/>
<path d="M97.8732 76.3862L87.0252 85.2735L84.6167 87.3494L91.6 98.9584C91.938 99.5203 92.5158 99.8952 93.1666 99.975C93.8171 100.055 94.4684 99.8304 94.932 99.3669L102.04 92.2608L97.8732 76.3862Z" fill="#0072B2"/>
<defs>
<filter id="filter0_f_251_10" x="56" y="154" width="44.1855" height="18.1831" filterUnits="userSpaceOnUse" color-interpolation-filters="sRGB">
<feFlood flood-opacity="0" result="BackgroundImageFix"/>
<feBlend mode="normal" in="SourceGraphic" in2="BackgroundImageFix" result="shape"/>
<feGaussianBlur stdDeviation="1" result="effect1_foregroundBlur_251_10"/>
</filter>
<filter id="filter1_d_251_10" x="0.788235" y="0.630588" width="155.263" height="179.424" filterUnits="userSpaceOnUse" color-interpolation-filters="sRGB">
<feFlood flood-opacity="0" result="BackgroundImageFix"/>
<feColorMatrix in="SourceAlpha" type="matrix" values="0 0 0 0 0 0 0 0 0 0 0 0 0 0 0 0 0 0 127 0" result="hardAlpha"/>
<feOffset dy="2.84235"/>
<feGaussianBlur stdDeviation="7.10588"/>
<feComposite in2="hardAlpha" operator="out"/>
<feColorMatrix type="matrix" values="0 0 0 0 0 0 0 0 0 0 0 0 0 0 0 0 0 0 0.1 0"/>
<feBlend mode="normal" in2="BackgroundImageFix" result="effect1_dropShadow_251_10"/>
<feBlend mode="normal" in="SourceGraphic" in2="effect1_dropShadow_251_10" result="shape"/>
</filter>
</defs>
</svg>
