<svg width="157" height="181" viewBox="0 0 157 181" fill="none" xmlns="http://www.w3.org/2000/svg">
<g filter="url(#filter0_f_251_4)">
<ellipse cx="78.0927" cy="163.633" rx="20.0927" ry="7.09154" fill="black" fill-opacity="0.2"/>
</g>
<g filter="url(#filter1_d_251_4)">
<path fill-rule="evenodd" clip-rule="evenodd" d="M78.42 12C113.446 12 141.84 40.3941 141.84 75.42C141.84 102.276 125.147 125.233 101.571 134.482L82.0315 161.19C81.6242 161.749 81.0833 162.205 80.4546 162.52C79.8259 162.836 79.1278 163 78.4193 163C77.7108 163 77.0127 162.836 76.384 162.52C75.7553 162.205 75.2145 161.749 74.8071 161.19L55.2667 134.481C31.6919 125.232 15 102.275 15 75.42C15 40.3941 43.3941 12 78.42 12Z" fill="#0072B2"/>
</g>
<path d="M131.892 75.4212C131.892 45.8896 107.952 21.9495 78.42 21.9495C48.8884 21.9495 24.9482 45.8896 24.9482 75.4212C24.9482 104.953 48.8884 128.893 78.42 128.893C107.952 128.893 131.892 104.953 131.892 75.4212Z" fill="white"/>
<path fill-rule="evenodd" clip-rule="evenodd" d="M64.036 94.9738C65.5229 95.9653 65.9247 97.9744 64.9334 99.4612L58.4619 109.168C57.4706 110.655 55.4616 111.057 53.9747 110.066C52.4878 109.075 52.0859 107.066 53.0772 105.579L59.5488 95.8714C60.5401 94.3846 62.5491 93.9827 64.036 94.9738ZM92.8039 94.9738C94.2907 93.9827 96.2998 94.3846 97.2912 95.8714L103.763 105.579C104.754 107.066 104.352 109.075 102.865 110.066C101.378 111.057 99.3693 110.655 98.3781 109.168L91.9066 99.4612C90.9152 97.9744 91.317 95.9653 92.8039 94.9738Z" fill="#0072B2"/>
<path fill-rule="evenodd" clip-rule="evenodd" d="M78.1891 40.231H78.6493C84.3853 40.2309 89.0095 40.2308 92.6459 40.7205C96.4214 41.2288 99.6005 42.3164 102.125 44.8449C104.65 47.3735 105.736 50.5572 106.244 54.3384C106.732 57.9804 106.732 62.6111 106.732 68.3561V71.9677C106.732 77.3009 106.732 81.6741 106.341 85.1871C106.318 85.3916 106.129 85.5317 105.923 85.5317H100.261C98.9204 85.5317 97.8338 86.6183 97.8338 87.9586C97.8338 89.2988 98.9204 90.3854 100.261 90.3854H102.52C103.799 90.3854 104.438 90.3854 104.718 90.8708C104.998 91.3558 104.708 91.8599 104.126 92.8682C103.586 93.8033 102.929 94.6741 102.125 95.4788C99.6005 98.0073 96.4214 99.0948 92.6459 99.6031C89.0095 100.093 84.3856 100.093 78.6496 100.093H78.1891C72.4528 100.093 67.8289 100.093 64.1924 99.6031C60.4169 99.0948 57.238 98.0073 54.7133 95.4788C53.9099 94.6741 53.2523 93.8033 52.7126 92.8682C52.1309 91.8599 51.84 91.3558 52.1203 90.8708C52.4005 90.3854 53.0398 90.3854 54.3182 90.3854H56.5777C57.918 90.3854 59.0046 89.2988 59.0046 87.9586C59.0046 86.6183 57.918 85.5317 56.5777 85.5317H50.9151C50.7095 85.5317 50.52 85.3916 50.4972 85.1871C50.1061 81.6741 50.1061 77.3012 50.1062 71.9677V68.3559C50.1061 62.611 50.1061 57.9803 50.595 54.3384C51.1026 50.5572 52.1885 47.3735 54.7133 44.8449C57.238 42.3164 60.4169 41.2288 64.1924 40.7205C67.8289 40.2308 72.4531 40.2309 78.1891 40.231ZM58.5833 54.7919H98.2545C99.0695 54.7919 99.4769 54.7919 99.7552 55.0474C100.034 55.3029 100.067 55.695 100.135 56.4793C100.397 59.5201 100.44 63.552 100.44 68.5865L100.44 71.8473C100.44 72.6039 100.44 72.9821 100.218 73.251C99.9969 73.5196 99.6303 73.5914 98.8971 73.7351C98.0639 73.8982 97.1381 74.0693 96.1328 74.2408C91.4736 75.0349 85.1451 75.8241 78.4202 75.8241C71.6956 75.8241 65.3672 75.0349 60.7078 74.2408C59.7012 74.069 58.7745 73.8975 57.9406 73.7344C57.2073 73.5908 56.8406 73.5189 56.6194 73.2504C56.3981 72.9815 56.3981 72.6032 56.398 71.8467L56.3976 68.5865C56.3976 63.552 56.4404 59.5201 56.7025 56.4793C56.7701 55.695 56.8039 55.3029 57.0823 55.0474C57.3608 54.7919 57.7683 54.7919 58.5833 54.7919Z" fill="#0072B2"/>
<defs>
<filter id="filter0_f_251_4" x="56" y="154.542" width="44.1855" height="18.1831" filterUnits="userSpaceOnUse" color-interpolation-filters="sRGB">
<feFlood flood-opacity="0" result="BackgroundImageFix"/>
<feBlend mode="normal" in="SourceGraphic" in2="BackgroundImageFix" result="shape"/>
<feGaussianBlur stdDeviation="1" result="effect1_foregroundBlur_251_4"/>
</filter>
<filter id="filter1_d_251_4" x="0.788235" y="0.630588" width="155.263" height="179.424" filterUnits="userSpaceOnUse" color-interpolation-filters="sRGB">
<feFlood flood-opacity="0" result="BackgroundImageFix"/>
<feColorMatrix in="SourceAlpha" type="matrix" values="0 0 0 0 0 0 0 0 0 0 0 0 0 0 0 0 0 0 127 0" result="hardAlpha"/>
<feOffset dy="2.84235"/>
<feGaussianBlur stdDeviation="7.10588"/>
<feComposite in2="hardAlpha" operator="out"/>
<feColorMatrix type="matrix" values="0 0 0 0 0 0 0 0 0 0 0 0 0 0 0 0 0 0 0.1 0"/>
<feBlend mode="normal" in2="BackgroundImageFix" result="effect1_dropShadow_251_4"/>
<feBlend mode="normal" in="SourceGraphic" in2="effect1_dropShadow_251_4" result="shape"/>
</filter>
</defs>
</svg>
